# xmcd CD database file
#
# Track frame offsets:
#        150
#        22275
#        38100
#        51095
#        66780
#        91950
#        112035
#        133060
#        149545
#
# Disc length: 2182 seconds
#
# Revision: 0
# Processed by: cddbd v1.5.2PL0 Copyright (c) Steve Scherf et al.
# Submitted via: CUERipper 2.1.1
#
DISCID=86088409
DTITLE=Johnny Bartee - "All Of Me"
DYEAR=1997
DGENRE=Blues
TTITLE0=Crawl In A Hole
TTITLE1=The Blues Is Rainin'
TTITLE2=Mean
TTITLE3=I'm Still Rockin'
TTITLE4=These Blues
TTITLE5=I'm Just As Bad
TTITLE6=A Little Fun
TTITLE7=Love Takes A Fall
TTITLE8=Take It Down
EXTD=
EXTT0=
EXTT1=
EXTT2=
EXTT3=
EXTT4=
EXTT5=
EXTT6=
EXTT7=
EXTT8=
PLAYORDER=
